<svg width="512" height="640" viewBox="0 0 512 640" xmlns="http://www.w3.org/2000/svg">
  <title>ORYNDYL Master Symbol v0.1</title>

  <g fill="none" stroke="#B88A3A" stroke-linecap="round" stroke-linejoin="round">

    <!-- Outer ring -->
    <path
      d="M256 116
         C366 116 444 202 444 320
         C444 438 366 524 256 524
         C146 524 68 438 68 320
         C68 202 146 116 256 116Z"
      stroke-width="30"
    />

    <!-- Vertical spine -->
    <path
      d="M256 48
         L256 160
         M256 480
         L256 592"
      stroke-width="30"
    />

    <!-- Top point -->
    <path
      d="M256 48
         L300 146
         L212 146
         Z"
      fill="#B88A3A"
      stroke="none"
    />

    <!-- Bottom point -->
    <path
      d="M256 592
         L212 494
         L300 494
         Z"
      fill="#B88A3A"
      stroke="none"
    />

    <!-- Center core -->
    <path
      d="M256 214
         L330 320
         L256 426
         L182 320
         Z"
      stroke-width="28"
    />

    <!-- Inner ember -->
    <path
      d="M256 278
         L286 320
         L256 362
         L226 320
         Z"
      fill="#B88A3A"
      stroke="none"
    />

  </g>
</svg>
